<!-- (c) Carrd Inc. All rights reserved. -->
<svg xmlns="http://www.w3.org/2000/svg" viewBox="0 0 512 512" width="512" height="512" preserveAspectRatio="none">
	<style type="text/css">
		path {
			fill: none;
			stroke: #4D3E5C;
			stroke-width: 3.01px;
		}
	</style>
	<path vector-effect="non-scaling-stroke" d="M111.2,81.7L-33.7,226.6c-13.9,13.9-36.5,13.9-50.5,0L-229.1,81.7 c-22.5-22.5-6.6-60.9,25.2-60.9H86C117.7,20.7,133.7,59.2,111.2,81.7z"/>
	<path vector-effect="non-scaling-stroke" d="M366.8,338.3L221.9,483.2c-13.9,13.9-36.5,13.9-50.5,0L26.6,338.3 c-22.5-22.5-6.6-60.9,25.2-60.9h289.8C373.4,277.4,389.3,315.8,366.8,338.3z"/>
	<path vector-effect="non-scaling-stroke" d="M40.6,423l-144.9-144.9c-13.9-13.9-13.9-36.5,0-50.5L40.6,82.8 c22.5-22.5,60.9-6.6,60.9,25.2v289.8C101.5,429.6,63.1,445.5,40.6,423z"/>
	<path vector-effect="non-scaling-stroke" d="M296.3,679.7L151.4,534.8c-13.9-13.9-13.9-36.5,0-50.5l144.9-144.9 c22.5-22.5,60.9-6.6,60.9,25.2v289.8C357.2,686.3,318.8,702.2,296.3,679.7z"/>
	<path vector-effect="non-scaling-stroke" d="M623.5,81.7L478.6,226.6c-13.9,13.9-36.5,13.9-50.5,0L283.2,81.7 c-22.5-22.5-6.6-60.9,25.2-60.9h289.8C630,20.7,646,59.2,623.5,81.7z"/>
	<path vector-effect="non-scaling-stroke" d="M296.3,166.4L151.4,21.5c-13.9-13.9-13.9-36.5,0-50.5l144.9-144.9 c22.5-22.5,60.9-6.6,60.9,25.2v289.8C357.2,173,318.8,188.9,296.3,166.4z"/>
	<path vector-effect="non-scaling-stroke" d="M552.9,423L408,278.2c-13.9-13.9-13.9-36.5,0-50.5L552.9,82.8 c22.5-22.5,60.9-6.6,60.9,25.2v289.8C613.8,429.6,575.4,445.5,552.9,423z"/>
</svg>